<?xml version="1.0" encoding="UTF-8" standalone="no"?>
<!DOCTYPE svg PUBLIC "-//W3C//DTD SVG 1.1//EN"
 "http://www.w3.org/Graphics/SVG/1.1/DTD/svg11.dtd">
<!-- Generated by graphviz version 2.38.0 (20140413.2041)
 -->
<!-- Title: controllers_diagram Pages: 1 -->
<svg width="384pt" height="223pt"
 viewBox="0.00 0.00 384.00 222.50" xmlns="http://www.w3.org/2000/svg" xmlns:xlink="http://www.w3.org/1999/xlink">
<g id="graph0" class="graph" transform="scale(1 1) rotate(0) translate(140 167.5)">
<title>controllers_diagram</title>
<polygon fill="none" stroke="none" points="-140,55 -140,-167.5 244,-167.5 244,55 -140,55"/>
<!-- _diagram_info -->
<g id="node1" class="node"><title>_diagram_info</title>
<text text-anchor="start" x="-128" y="-12.6" font-family="Times,serif" font-size="13.00">Controllers diagram</text>
<text text-anchor="start" x="-128" y="1.4" font-family="Times,serif" font-size="13.00">Date: Oct 15 2016 &#45; 14:41</text>
<text text-anchor="start" x="-128" y="15.4" font-family="Times,serif" font-size="13.00">Migration version: 20161015180852</text>
<text text-anchor="start" x="-128" y="29.4" font-family="Times,serif" font-size="13.00">Generated by RailRoady 1.4.1</text>
<text text-anchor="start" x="-128" y="43.4" font-family="Times,serif" font-size="13.00">http://railroady.prestonlee.com</text>
</g>
<!-- ApplicationController -->
<g id="node2" class="node"><title>ApplicationController</title>
<path fill="none" stroke="black" d="M80,-69C80,-69 228,-69 228,-69 234,-69 240,-75 240,-81 240,-81 240,-151 240,-151 240,-157 234,-163 228,-163 228,-163 80,-163 80,-163 74,-163 68,-157 68,-151 68,-151 68,-81 68,-81 68,-75 74,-69 80,-69"/>
<text text-anchor="middle" x="154" y="-147.8" font-family="Times,serif" font-size="14.00">ApplicationController</text>
<polyline fill="none" stroke="black" points="68,-140 240,-140 "/>
<polyline fill="none" stroke="black" points="68,-116 240,-116 "/>
<polyline fill="none" stroke="black" points="68,-92 240,-92 "/>
<text text-anchor="start" x="76" y="-76.8" font-family="Times,serif" font-size="14.00">_layout</text>
</g>
</g>
</svg>
