<?xml version="1.0" encoding="UTF-8" standalone="no"?>
<!DOCTYPE svg PUBLIC "-//W3C//DTD SVG 1.1//EN"
 "http://www.w3.org/Graphics/SVG/1.1/DTD/svg11.dtd">
<!-- Generated by graphviz version 2.38.0 (20140413.2041)
 -->
<!-- Title: controllers_diagram Pages: 1 -->
<svg width="384pt" height="368pt"
 viewBox="0.00 0.00 384.00 368.00" xmlns="http://www.w3.org/2000/svg" xmlns:xlink="http://www.w3.org/1999/xlink">
<g id="graph0" class="graph" transform="scale(1 1) rotate(0) translate(116 236.5)">
<title>controllers_diagram</title>
<polygon fill="none" stroke="none" points="-116,131.5 -116,-236.5 268,-236.5 268,131.5 -116,131.5"/>
<!-- _diagram_info -->
<g id="node1" class="node"><title>_diagram_info</title>
<text text-anchor="start" x="-104" y="-15.6" font-family="Times,serif" font-size="13.00">Controllers diagram</text>
<text text-anchor="start" x="-104" y="-1.6" font-family="Times,serif" font-size="13.00">Date: Oct 20 2016 &#45; 00:10</text>
<text text-anchor="start" x="-104" y="12.4" font-family="Times,serif" font-size="13.00">Migration version: 20161015180852</text>
<text text-anchor="start" x="-104" y="26.4" font-family="Times,serif" font-size="13.00">Generated by RailRoady 1.4.1</text>
<text text-anchor="start" x="-104" y="40.4" font-family="Times,serif" font-size="13.00">http://railroady.prestonlee.com</text>
</g>
<!-- UserTypeController -->
<g id="node2" class="node"><title>UserTypeController</title>
<path fill="none" stroke="black" d="M75.5,-64C75.5,-64 176.5,-64 176.5,-64 182.5,-64 188.5,-70 188.5,-76 188.5,-76 188.5,-220 188.5,-220 188.5,-226 182.5,-232 176.5,-232 176.5,-232 75.5,-232 75.5,-232 69.5,-232 63.5,-226 63.5,-220 63.5,-220 63.5,-76 63.5,-76 63.5,-70 69.5,-64 75.5,-64"/>
<text text-anchor="middle" x="126" y="-216.8" font-family="Times,serif" font-size="14.00">UserTypeController</text>
<polyline fill="none" stroke="black" points="63.5,-209 188.5,-209 "/>
<text text-anchor="start" x="71.5" y="-193.8" font-family="Times,serif" font-size="14.00">create_user_type</text>
<text text-anchor="start" x="71.5" y="-178.8" font-family="Times,serif" font-size="14.00">delete_user_type</text>
<text text-anchor="start" x="71.5" y="-163.8" font-family="Times,serif" font-size="14.00">list_all</text>
<text text-anchor="start" x="71.5" y="-148.8" font-family="Times,serif" font-size="14.00">new_user_type</text>
<text text-anchor="start" x="71.5" y="-133.8" font-family="Times,serif" font-size="14.00">update_user_type</text>
<polyline fill="none" stroke="black" points="63.5,-126 188.5,-126 "/>
<polyline fill="none" stroke="black" points="63.5,-102 188.5,-102 "/>
<text text-anchor="start" x="71.5" y="-86.8" font-family="Times,serif" font-size="14.00">_layout</text>
<text text-anchor="start" x="71.5" y="-71.8" font-family="Times,serif" font-size="14.00">get_params</text>
</g>
<!-- UserController -->
<g id="node3" class="node"><title>UserController</title>
<path fill="none" stroke="black" d="M-52,-64.5C-52,-64.5 22,-64.5 22,-64.5 28,-64.5 34,-70.5 34,-76.5 34,-76.5 34,-205.5 34,-205.5 34,-211.5 28,-217.5 22,-217.5 22,-217.5 -52,-217.5 -52,-217.5 -58,-217.5 -64,-211.5 -64,-205.5 -64,-205.5 -64,-76.5 -64,-76.5 -64,-70.5 -58,-64.5 -52,-64.5"/>
<text text-anchor="middle" x="-15" y="-202.3" font-family="Times,serif" font-size="14.00">UserController</text>
<polyline fill="none" stroke="black" points="-64,-194.5 34,-194.5 "/>
<text text-anchor="start" x="-56" y="-179.3" font-family="Times,serif" font-size="14.00">block_user</text>
<text text-anchor="start" x="-56" y="-164.3" font-family="Times,serif" font-size="14.00">create_user</text>
<text text-anchor="start" x="-56" y="-149.3" font-family="Times,serif" font-size="14.00">delete_user</text>
<text text-anchor="start" x="-56" y="-134.3" font-family="Times,serif" font-size="14.00">list_all</text>
<text text-anchor="start" x="-56" y="-119.3" font-family="Times,serif" font-size="14.00">update_user</text>
<polyline fill="none" stroke="black" points="-64,-111.5 34,-111.5 "/>
<polyline fill="none" stroke="black" points="-64,-87.5 34,-87.5 "/>
<text text-anchor="start" x="-56" y="-72.3" font-family="Times,serif" font-size="14.00">_layout</text>
</g>
<!-- ApplicationController -->
<g id="node4" class="node"><title>ApplicationController</title>
<path fill="none" stroke="black" d="M140,127C140,127 252,127 252,127 258,127 264,121 264,115 264,115 264,45 264,45 264,39 258,33 252,33 252,33 140,33 140,33 134,33 128,39 128,45 128,45 128,115 128,115 128,121 134,127 140,127"/>
<text text-anchor="middle" x="196" y="48.2" font-family="Times,serif" font-size="14.00">ApplicationController</text>
<polyline fill="none" stroke="black" points="128,56 264,56 "/>
<polyline fill="none" stroke="black" points="128,80 264,80 "/>
<polyline fill="none" stroke="black" points="128,104 264,104 "/>
<text text-anchor="start" x="136" y="119.2" font-family="Times,serif" font-size="14.00">_layout</text>
</g>
</g>
</svg>
