<?xml version="1.0" encoding="UTF-8" standalone="no"?>
<!DOCTYPE svg PUBLIC "-//W3C//DTD SVG 1.1//EN"
 "http://www.w3.org/Graphics/SVG/1.1/DTD/svg11.dtd">
<!-- Generated by graphviz version 2.38.0 (20140413.2041)
 -->
<!-- Title: models_diagram Pages: 1 -->
<svg width="861pt" height="446pt"
 viewBox="0.00 0.00 860.84 446.00" xmlns="http://www.w3.org/2000/svg" xmlns:xlink="http://www.w3.org/1999/xlink">
<g id="graph0" class="graph" transform="scale(1 1) rotate(0) translate(4 442)">
<title>models_diagram</title>
<polygon fill="none" stroke="none" points="-4,4 -4,-442 856.841,-442 856.841,4 -4,4"/>
<!-- _diagram_info -->
<g id="node1" class="node"><title>_diagram_info</title>
<text text-anchor="start" x="8" y="-409.1" font-family="Times,serif" font-size="13.00">Models diagram</text>
<text text-anchor="start" x="8" y="-395.1" font-family="Times,serif" font-size="13.00">Date: Oct 15 2016 &#45; 14:41</text>
<text text-anchor="start" x="8" y="-381.1" font-family="Times,serif" font-size="13.00">Migration version: 20161015180852</text>
<text text-anchor="start" x="8" y="-367.1" font-family="Times,serif" font-size="13.00">Generated by RailRoady 1.4.1</text>
<text text-anchor="start" x="8" y="-353.1" font-family="Times,serif" font-size="13.00">http://railroady.prestonlee.com</text>
</g>
<!-- BookTag -->
<g id="node2" class="node"><title>BookTag</title>
<path fill="none" stroke="black" d="M284,-331.5C284,-331.5 430,-331.5 430,-331.5 436,-331.5 442,-337.5 442,-343.5 442,-343.5 442,-425.5 442,-425.5 442,-431.5 436,-437.5 430,-437.5 430,-437.5 284,-437.5 284,-437.5 278,-437.5 272,-431.5 272,-425.5 272,-425.5 272,-343.5 272,-343.5 272,-337.5 278,-331.5 284,-331.5"/>
<text text-anchor="middle" x="357" y="-422.3" font-family="Times,serif" font-size="14.00">BookTag</text>
<polyline fill="none" stroke="black" points="272,-414.5 442,-414.5 "/>
<text text-anchor="start" x="280" y="-399.3" font-family="Times,serif" font-size="14.00">id :INTEGER</text>
<text text-anchor="start" x="280" y="-384.3" font-family="Times,serif" font-size="14.00">book_id_id :integer</text>
<text text-anchor="start" x="280" y="-369.3" font-family="Times,serif" font-size="14.00">tag_id_id :integer</text>
<text text-anchor="start" x="280" y="-354.3" font-family="Times,serif" font-size="14.00">created_at :datetime</text>
<text text-anchor="start" x="280" y="-339.3" font-family="Times,serif" font-size="14.00">updated_at :datetime</text>
</g>
<!-- Tag -->
<g id="node3" class="node"><title>Tag</title>
<path fill="none" stroke="black" d="M183,-166C183,-166 329,-166 329,-166 335,-166 341,-172 341,-178 341,-178 341,-245 341,-245 341,-251 335,-257 329,-257 329,-257 183,-257 183,-257 177,-257 171,-251 171,-245 171,-245 171,-178 171,-178 171,-172 177,-166 183,-166"/>
<text text-anchor="middle" x="256" y="-241.8" font-family="Times,serif" font-size="14.00">Tag</text>
<polyline fill="none" stroke="black" points="171,-234 341,-234 "/>
<text text-anchor="start" x="179" y="-218.8" font-family="Times,serif" font-size="14.00">id :INTEGER</text>
<text text-anchor="start" x="179" y="-203.8" font-family="Times,serif" font-size="14.00">description :varchar</text>
<text text-anchor="start" x="179" y="-188.8" font-family="Times,serif" font-size="14.00">created_at :datetime</text>
<text text-anchor="start" x="179" y="-173.8" font-family="Times,serif" font-size="14.00">updated_at :datetime</text>
</g>
<!-- BookTag&#45;&gt;Tag -->
<g id="edge2" class="edge"><title>BookTag&#45;&gt;Tag</title>
<path fill="none" stroke="#cf443a" d="M321.989,-324.224C310.522,-304.809 297.875,-283.397 286.747,-264.557"/>
<ellipse fill="none" stroke="#cf443a" cx="324.114" cy="-327.821" rx="4.00002" ry="4.00002"/>
<ellipse fill="#cf443a" stroke="#cf443a" cx="284.437" cy="-260.646" rx="4.00002" ry="4.00002"/>
</g>
<!-- Book -->
<g id="node8" class="node"><title>Book</title>
<path fill="none" stroke="black" d="M371.5,-128.5C371.5,-128.5 540.5,-128.5 540.5,-128.5 546.5,-128.5 552.5,-134.5 552.5,-140.5 552.5,-140.5 552.5,-282.5 552.5,-282.5 552.5,-288.5 546.5,-294.5 540.5,-294.5 540.5,-294.5 371.5,-294.5 371.5,-294.5 365.5,-294.5 359.5,-288.5 359.5,-282.5 359.5,-282.5 359.5,-140.5 359.5,-140.5 359.5,-134.5 365.5,-128.5 371.5,-128.5"/>
<text text-anchor="middle" x="456" y="-279.3" font-family="Times,serif" font-size="14.00">Book</text>
<polyline fill="none" stroke="black" points="359.5,-271.5 552.5,-271.5 "/>
<text text-anchor="start" x="367.5" y="-256.3" font-family="Times,serif" font-size="14.00">id :INTEGER</text>
<text text-anchor="start" x="367.5" y="-241.3" font-family="Times,serif" font-size="14.00">title :varchar</text>
<text text-anchor="start" x="367.5" y="-226.3" font-family="Times,serif" font-size="14.00">description :varchar</text>
<text text-anchor="start" x="367.5" y="-211.3" font-family="Times,serif" font-size="14.00">isbn :varchar</text>
<text text-anchor="start" x="367.5" y="-196.3" font-family="Times,serif" font-size="14.00">cover :varchar</text>
<text text-anchor="start" x="367.5" y="-181.3" font-family="Times,serif" font-size="14.00">copies :integer</text>
<text text-anchor="start" x="367.5" y="-166.3" font-family="Times,serif" font-size="14.00">book_type_id_id :integer</text>
<text text-anchor="start" x="367.5" y="-151.3" font-family="Times,serif" font-size="14.00">created_at :datetime</text>
<text text-anchor="start" x="367.5" y="-136.3" font-family="Times,serif" font-size="14.00">updated_at :datetime</text>
</g>
<!-- BookTag&#45;&gt;Book -->
<g id="edge1" class="edge"><title>BookTag&#45;&gt;Book</title>
<path fill="none" stroke="#254362" d="M391.394,-324.092C395.611,-316.808 399.99,-309.245 404.391,-301.643"/>
<ellipse fill="none" stroke="#254362" cx="389.245" cy="-327.803" rx="4.00002" ry="4.00002"/>
<ellipse fill="#254362" stroke="#254362" cx="406.43" cy="-298.12" rx="4.00002" ry="4.00002"/>
</g>
<!-- BookType -->
<g id="node4" class="node"><title>BookType</title>
<path fill="none" stroke="black" d="M383,-0.5C383,-0.5 529,-0.5 529,-0.5 535,-0.5 541,-6.5 541,-12.5 541,-12.5 541,-79.5 541,-79.5 541,-85.5 535,-91.5 529,-91.5 529,-91.5 383,-91.5 383,-91.5 377,-91.5 371,-85.5 371,-79.5 371,-79.5 371,-12.5 371,-12.5 371,-6.5 377,-0.5 383,-0.5"/>
<text text-anchor="middle" x="456" y="-76.3" font-family="Times,serif" font-size="14.00">BookType</text>
<polyline fill="none" stroke="black" points="371,-68.5 541,-68.5 "/>
<text text-anchor="start" x="379" y="-53.3" font-family="Times,serif" font-size="14.00">id :INTEGER</text>
<text text-anchor="start" x="379" y="-38.3" font-family="Times,serif" font-size="14.00">description :varchar</text>
<text text-anchor="start" x="379" y="-23.3" font-family="Times,serif" font-size="14.00">created_at :datetime</text>
<text text-anchor="start" x="379" y="-8.3" font-family="Times,serif" font-size="14.00">updated_at :datetime</text>
</g>
<!-- User -->
<g id="node5" class="node"><title>User</title>
<path fill="none" stroke="black" d="M583,-136C583,-136 749,-136 749,-136 755,-136 761,-142 761,-148 761,-148 761,-275 761,-275 761,-281 755,-287 749,-287 749,-287 583,-287 583,-287 577,-287 571,-281 571,-275 571,-275 571,-148 571,-148 571,-142 577,-136 583,-136"/>
<text text-anchor="middle" x="666" y="-271.8" font-family="Times,serif" font-size="14.00">User</text>
<polyline fill="none" stroke="black" points="571,-264 761,-264 "/>
<text text-anchor="start" x="579" y="-248.8" font-family="Times,serif" font-size="14.00">id :INTEGER</text>
<text text-anchor="start" x="579" y="-233.8" font-family="Times,serif" font-size="14.00">name :varchar</text>
<text text-anchor="start" x="579" y="-218.8" font-family="Times,serif" font-size="14.00">last_name :varchar</text>
<text text-anchor="start" x="579" y="-203.8" font-family="Times,serif" font-size="14.00">birthdate :date</text>
<text text-anchor="start" x="579" y="-188.8" font-family="Times,serif" font-size="14.00">code :varchar</text>
<text text-anchor="start" x="579" y="-173.8" font-family="Times,serif" font-size="14.00">user_type_id_id :integer</text>
<text text-anchor="start" x="579" y="-158.8" font-family="Times,serif" font-size="14.00">created_at :datetime</text>
<text text-anchor="start" x="579" y="-143.8" font-family="Times,serif" font-size="14.00">updated_at :datetime</text>
</g>
<!-- UserType -->
<g id="node6" class="node"><title>UserType</title>
<path fill="none" stroke="black" d="M593,-0.5C593,-0.5 739,-0.5 739,-0.5 745,-0.5 751,-6.5 751,-12.5 751,-12.5 751,-79.5 751,-79.5 751,-85.5 745,-91.5 739,-91.5 739,-91.5 593,-91.5 593,-91.5 587,-91.5 581,-85.5 581,-79.5 581,-79.5 581,-12.5 581,-12.5 581,-6.5 587,-0.5 593,-0.5"/>
<text text-anchor="middle" x="666" y="-76.3" font-family="Times,serif" font-size="14.00">UserType</text>
<polyline fill="none" stroke="black" points="581,-68.5 751,-68.5 "/>
<text text-anchor="start" x="589" y="-53.3" font-family="Times,serif" font-size="14.00">id :INTEGER</text>
<text text-anchor="start" x="589" y="-38.3" font-family="Times,serif" font-size="14.00">description :varchar</text>
<text text-anchor="start" x="589" y="-23.3" font-family="Times,serif" font-size="14.00">created_at :datetime</text>
<text text-anchor="start" x="589" y="-8.3" font-family="Times,serif" font-size="14.00">updated_at :datetime</text>
</g>
<!-- User&#45;&gt;UserType -->
<g id="edge3" class="edge"><title>User&#45;&gt;UserType</title>
<path fill="none" stroke="#0da94e" d="M666,-127.735C666,-118.181 666,-108.647 666,-99.6522"/>
<ellipse fill="none" stroke="#0da94e" cx="666" cy="-131.927" rx="4" ry="4"/>
<ellipse fill="#0da94e" stroke="#0da94e" cx="666" cy="-95.559" rx="4" ry="4"/>
</g>
<!-- ApplicationRecord -->
<g id="node7" class="node"><title>ApplicationRecord</title>
<ellipse fill="none" stroke="black" cx="756" cy="-384.5" rx="96.6831" ry="18"/>
<text text-anchor="middle" x="756" y="-380.8" font-family="Times,serif" font-size="14.00">ApplicationRecord</text>
</g>
<!-- Book&#45;&gt;BookType -->
<g id="edge4" class="edge"><title>Book&#45;&gt;BookType</title>
<path fill="none" stroke="#907e96" d="M456,-120.04C456,-113.173 456,-106.389 456,-99.885"/>
<ellipse fill="none" stroke="#907e96" cx="456" cy="-124.271" rx="4" ry="4"/>
<ellipse fill="#907e96" stroke="#907e96" cx="456" cy="-95.8105" rx="4" ry="4"/>
</g>
<!-- LoanHistory -->
<g id="node9" class="node"><title>LoanHistory</title>
<path fill="none" stroke="black" d="M483,-331.5C483,-331.5 629,-331.5 629,-331.5 635,-331.5 641,-337.5 641,-343.5 641,-343.5 641,-425.5 641,-425.5 641,-431.5 635,-437.5 629,-437.5 629,-437.5 483,-437.5 483,-437.5 477,-437.5 471,-431.5 471,-425.5 471,-425.5 471,-343.5 471,-343.5 471,-337.5 477,-331.5 483,-331.5"/>
<text text-anchor="middle" x="556" y="-422.3" font-family="Times,serif" font-size="14.00">LoanHistory</text>
<polyline fill="none" stroke="black" points="471,-414.5 641,-414.5 "/>
<text text-anchor="start" x="479" y="-399.3" font-family="Times,serif" font-size="14.00">id :INTEGER</text>
<text text-anchor="start" x="479" y="-384.3" font-family="Times,serif" font-size="14.00">user_id_id :integer</text>
<text text-anchor="start" x="479" y="-369.3" font-family="Times,serif" font-size="14.00">book_id_id :integer</text>
<text text-anchor="start" x="479" y="-354.3" font-family="Times,serif" font-size="14.00">created_at :datetime</text>
<text text-anchor="start" x="479" y="-339.3" font-family="Times,serif" font-size="14.00">updated_at :datetime</text>
</g>
<!-- LoanHistory&#45;&gt;User -->
<g id="edge5" class="edge"><title>LoanHistory&#45;&gt;User</title>
<path fill="none" stroke="#11b8af" d="M594.085,-324.296C600.417,-314.451 607.082,-304.091 613.694,-293.812"/>
<ellipse fill="none" stroke="#11b8af" cx="591.765" cy="-327.901" rx="4.00002" ry="4.00002"/>
<ellipse fill="#11b8af" stroke="#11b8af" cx="615.863" cy="-290.44" rx="4.00002" ry="4.00002"/>
</g>
<!-- LoanHistory&#45;&gt;Book -->
<g id="edge6" class="edge"><title>LoanHistory&#45;&gt;Book</title>
<path fill="none" stroke="#6fc14b" d="M521.258,-324.092C516.999,-316.808 512.576,-309.245 508.131,-301.643"/>
<ellipse fill="none" stroke="#6fc14b" cx="523.434" cy="-327.812" rx="4.00002" ry="4.00002"/>
<ellipse fill="#6fc14b" stroke="#6fc14b" cx="506.065" cy="-298.111" rx="4.00002" ry="4.00002"/>
</g>
</g>
</svg>
