<?xml version="1.0" encoding="UTF-8" standalone="no"?>
<!DOCTYPE svg PUBLIC "-//W3C//DTD SVG 1.1//EN"
 "http://www.w3.org/Graphics/SVG/1.1/DTD/svg11.dtd">
<!-- Generated by graphviz version 2.38.0 (20140413.2041)
 -->
<!-- Title: models_diagram Pages: 1 -->
<svg width="777pt" height="230pt"
 viewBox="0.00 0.00 776.84 230.00" xmlns="http://www.w3.org/2000/svg" xmlns:xlink="http://www.w3.org/1999/xlink">
<g id="graph0" class="graph" transform="scale(1 1) rotate(0) translate(4 226)">
<title>models_diagram</title>
<polygon fill="none" stroke="none" points="-4,4 -4,-226 772.841,-226 772.841,4 -4,4"/>
<!-- _diagram_info -->
<g id="node1" class="node"><title>_diagram_info</title>
<text text-anchor="start" x="8" y="-207.6" font-family="Times,serif" font-size="13.00">Models diagram</text>
<text text-anchor="start" x="8" y="-193.6" font-family="Times,serif" font-size="13.00">Date: Oct 15 2016 &#45; 14:41</text>
<text text-anchor="start" x="8" y="-179.6" font-family="Times,serif" font-size="13.00">Migration version: 20161015180852</text>
<text text-anchor="start" x="8" y="-165.6" font-family="Times,serif" font-size="13.00">Generated by RailRoady 1.4.1</text>
<text text-anchor="start" x="8" y="-151.6" font-family="Times,serif" font-size="13.00">http://railroady.prestonlee.com</text>
</g>
<!-- BookTag -->
<g id="node2" class="node"><title>BookTag</title>
<ellipse fill="none" stroke="black" cx="324" cy="-183" rx="51.9908" ry="18"/>
<text text-anchor="middle" x="324" y="-179.3" font-family="Times,serif" font-size="14.00">BookTag</text>
</g>
<!-- Tag -->
<g id="node3" class="node"><title>Tag</title>
<ellipse fill="none" stroke="black" cx="316" cy="-90" rx="28.6953" ry="18"/>
<text text-anchor="middle" x="316" y="-86.3" font-family="Times,serif" font-size="14.00">Tag</text>
</g>
<!-- BookTag&#45;&gt;Tag -->
<g id="edge2" class="edge"><title>BookTag&#45;&gt;Tag</title>
<path fill="none" stroke="#a73b8b" d="M321.778,-156.729C320.67,-144.118 319.332,-128.905 318.224,-116.292"/>
<ellipse fill="none" stroke="#a73b8b" cx="322.145" cy="-160.899" rx="4" ry="4"/>
<ellipse fill="#a73b8b" stroke="#a73b8b" cx="317.848" cy="-112.024" rx="4" ry="4"/>
</g>
<!-- Book -->
<g id="node8" class="node"><title>Book</title>
<ellipse fill="none" stroke="black" cx="397" cy="-90" rx="34.394" ry="18"/>
<text text-anchor="middle" x="397" y="-86.3" font-family="Times,serif" font-size="14.00">Book</text>
</g>
<!-- BookTag&#45;&gt;Book -->
<g id="edge1" class="edge"><title>BookTag&#45;&gt;Book</title>
<path fill="none" stroke="#af8ad3" d="M342.69,-158.701C353.866,-144.769 367.993,-127.159 379.038,-113.392"/>
<ellipse fill="none" stroke="#af8ad3" cx="339.892" cy="-162.189" rx="4.00002" ry="4.00002"/>
<ellipse fill="#af8ad3" stroke="#af8ad3" cx="381.682" cy="-110.095" rx="4.00002" ry="4.00002"/>
</g>
<!-- BookType -->
<g id="node4" class="node"><title>BookType</title>
<ellipse fill="none" stroke="black" cx="386" cy="-18" rx="57.3905" ry="18"/>
<text text-anchor="middle" x="386" y="-14.3" font-family="Times,serif" font-size="14.00">BookType</text>
</g>
<!-- User -->
<g id="node5" class="node"><title>User</title>
<ellipse fill="none" stroke="black" cx="495" cy="-90" rx="33.2948" ry="18"/>
<text text-anchor="middle" x="495" y="-86.3" font-family="Times,serif" font-size="14.00">User</text>
</g>
<!-- UserType -->
<g id="node6" class="node"><title>UserType</title>
<ellipse fill="none" stroke="black" cx="517" cy="-18" rx="55.7903" ry="18"/>
<text text-anchor="middle" x="517" y="-14.3" font-family="Times,serif" font-size="14.00">UserType</text>
</g>
<!-- User&#45;&gt;UserType -->
<g id="edge3" class="edge"><title>User&#45;&gt;UserType</title>
<path fill="none" stroke="#2e6040" d="M502.773,-64.2675C504.818,-57.7617 507.026,-50.7366 509.078,-44.2062"/>
<ellipse fill="none" stroke="#2e6040" cx="501.525" cy="-68.239" rx="4.00001" ry="4.00001"/>
<ellipse fill="#2e6040" stroke="#2e6040" cx="510.371" cy="-40.0913" rx="4.00001" ry="4.00001"/>
</g>
<!-- ApplicationRecord -->
<g id="node7" class="node"><title>ApplicationRecord</title>
<ellipse fill="none" stroke="black" cx="672" cy="-183" rx="96.6831" ry="18"/>
<text text-anchor="middle" x="672" y="-179.3" font-family="Times,serif" font-size="14.00">ApplicationRecord</text>
</g>
<!-- Book&#45;&gt;BookType -->
<g id="edge4" class="edge"><title>Book&#45;&gt;BookType</title>
<path fill="none" stroke="#f299d7" d="M393.015,-63.6398C392.026,-57.348 390.967,-50.6053 389.978,-44.3156"/>
<ellipse fill="none" stroke="#f299d7" cx="393.66" cy="-67.7451" rx="4.00001" ry="4.00001"/>
<ellipse fill="#f299d7" stroke="#f299d7" cx="389.309" cy="-40.0558" rx="4.00001" ry="4.00001"/>
</g>
<!-- LoanHistory -->
<g id="node9" class="node"><title>LoanHistory</title>
<ellipse fill="none" stroke="black" cx="488" cy="-183" rx="68.7879" ry="18"/>
<text text-anchor="middle" x="488" y="-179.3" font-family="Times,serif" font-size="14.00">LoanHistory</text>
</g>
<!-- LoanHistory&#45;&gt;User -->
<g id="edge5" class="edge"><title>LoanHistory&#45;&gt;User</title>
<path fill="none" stroke="#25d5a4" d="M489.944,-156.729C490.914,-144.118 492.084,-128.905 493.054,-116.292"/>
<ellipse fill="none" stroke="#25d5a4" cx="489.623" cy="-160.895" rx="4" ry="4"/>
<ellipse fill="#25d5a4" stroke="#25d5a4" cx="493.382" cy="-112.028" rx="4" ry="4"/>
</g>
<!-- LoanHistory&#45;&gt;Book -->
<g id="edge6" class="edge"><title>LoanHistory&#45;&gt;Book</title>
<path fill="none" stroke="#93fb61" d="M465.49,-159.49C451.023,-145.023 432.35,-126.35 418.156,-112.156"/>
<ellipse fill="none" stroke="#93fb61" cx="468.481" cy="-162.481" rx="4.00002" ry="4.00002"/>
<ellipse fill="#93fb61" stroke="#93fb61" cx="415.201" cy="-109.201" rx="4.00002" ry="4.00002"/>
</g>
</g>
</svg>
