<?xml version="1.0" encoding="UTF-8" standalone="no"?>
<!DOCTYPE svg PUBLIC "-//W3C//DTD SVG 1.1//EN"
 "http://www.w3.org/Graphics/SVG/1.1/DTD/svg11.dtd">
<!-- Generated by graphviz version 2.38.0 (20140413.2041)
 -->
<!-- Title: models_diagram Pages: 1 -->
<svg width="653pt" height="230pt"
 viewBox="0.00 0.00 653.34 230.00" xmlns="http://www.w3.org/2000/svg" xmlns:xlink="http://www.w3.org/1999/xlink">
<g id="graph0" class="graph" transform="scale(1 1) rotate(0) translate(4 226)">
<title>models_diagram</title>
<polygon fill="none" stroke="none" points="-4,4 -4,-226 649.343,-226 649.343,4 -4,4"/>
<!-- _diagram_info -->
<g id="node1" class="node"><title>_diagram_info</title>
<text text-anchor="start" x="8" y="-207.6" font-family="Times,serif" font-size="13.00">Models diagram</text>
<text text-anchor="start" x="8" y="-193.6" font-family="Times,serif" font-size="13.00">Date: Oct 20 2016 &#45; 00:10</text>
<text text-anchor="start" x="8" y="-179.6" font-family="Times,serif" font-size="13.00">Migration version: 20161015180852</text>
<text text-anchor="start" x="8" y="-165.6" font-family="Times,serif" font-size="13.00">Generated by RailRoady 1.4.1</text>
<text text-anchor="start" x="8" y="-151.6" font-family="Times,serif" font-size="13.00">http://railroady.prestonlee.com</text>
</g>
<!-- Book -->
<g id="node2" class="node"><title>Book</title>
<ellipse fill="none" stroke="black" cx="375" cy="-90" rx="29.795" ry="18"/>
<text text-anchor="middle" x="375" y="-86.3" font-family="Times,serif" font-size="14.00">Book</text>
</g>
<!-- BookType -->
<g id="node3" class="node"><title>BookType</title>
<ellipse fill="none" stroke="black" cx="398" cy="-18" rx="48.1917" ry="18"/>
<text text-anchor="middle" x="398" y="-14.3" font-family="Times,serif" font-size="14.00">BookType</text>
</g>
<!-- Book&#45;&gt;BookType -->
<g id="edge1" class="edge"><title>Book&#45;&gt;BookType</title>
<path fill="none" stroke="#8dd1a5" d="M383.126,-64.2675C385.264,-57.7617 387.572,-50.7366 389.718,-44.2062"/>
<ellipse fill="none" stroke="#8dd1a5" cx="381.816" cy="-68.2548" rx="4.00001" ry="4.00001"/>
<ellipse fill="#8dd1a5" stroke="#8dd1a5" cx="391.075" cy="-40.0754" rx="4.00001" ry="4.00001"/>
</g>
<!-- LoanHistory -->
<g id="node4" class="node"><title>LoanHistory</title>
<ellipse fill="none" stroke="black" cx="277" cy="-18" rx="55.4913" ry="18"/>
<text text-anchor="middle" x="277" y="-14.3" font-family="Times,serif" font-size="14.00">LoanHistory</text>
</g>
<!-- Book&#45;&gt;LoanHistory -->
<g id="edge2" class="edge"><title>Book&#45;&gt;LoanHistory</title>
<path fill="none" stroke="#23f076" d="M349.235,-70.5964C336.395,-61.4253 320.786,-50.2758 307.367,-40.691"/>
<ellipse fill="none" stroke="#23f076" cx="352.85" cy="-73.1783" rx="4.00002" ry="4.00002"/>
<polygon fill="#23f076" stroke="#23f076" points="307.054,-40.4673 301.532,-30.9931 302.986,-37.5611 298.917,-34.6549 298.917,-34.6549 298.917,-34.6549 302.986,-37.5611 296.301,-38.3167 307.054,-40.4673 307.054,-40.4673"/>
</g>
<!-- User -->
<g id="node5" class="node"><title>User</title>
<ellipse fill="none" stroke="black" cx="277" cy="-90" rx="27.0966" ry="18"/>
<text text-anchor="middle" x="277" y="-86.3" font-family="Times,serif" font-size="14.00">User</text>
</g>
<!-- User&#45;&gt;LoanHistory -->
<g id="edge3" class="edge"><title>User&#45;&gt;LoanHistory</title>
<path fill="none" stroke="#1f044c" d="M277,-63.6398C277,-58.0629 277,-52.1319 277,-46.4761"/>
<ellipse fill="none" stroke="#1f044c" cx="277" cy="-67.6966" rx="4" ry="4"/>
<polygon fill="#1f044c" stroke="#1f044c" points="277,-46.1043 281.5,-36.1043 277,-41.1043 277,-36.1043 277,-36.1043 277,-36.1043 277,-41.1043 272.5,-36.1044 277,-46.1043 277,-46.1043"/>
</g>
<!-- ApplicationRecord -->
<g id="node6" class="node"><title>ApplicationRecord</title>
<ellipse fill="none" stroke="black" cx="568" cy="-183" rx="77.1866" ry="18"/>
<text text-anchor="middle" x="568" y="-179.3" font-family="Times,serif" font-size="14.00">ApplicationRecord</text>
</g>
<!-- BookTag -->
<g id="node7" class="node"><title>BookTag</title>
<ellipse fill="none" stroke="black" cx="429" cy="-183" rx="43.5923" ry="18"/>
<text text-anchor="middle" x="429" y="-179.3" font-family="Times,serif" font-size="14.00">BookTag</text>
</g>
<!-- BookTag&#45;&gt;Book -->
<g id="edge4" class="edge"><title>BookTag&#45;&gt;Book</title>
<path fill="none" stroke="#bc625c" d="M414.943,-158.311C406.909,-144.773 396.873,-127.86 388.871,-114.375"/>
<ellipse fill="none" stroke="#bc625c" cx="417.054" cy="-161.869" rx="4.00002" ry="4.00002"/>
<ellipse fill="#bc625c" stroke="#bc625c" cx="386.701" cy="-110.719" rx="4.00002" ry="4.00002"/>
</g>
<!-- Tag -->
<g id="node9" class="node"><title>Tag</title>
<ellipse fill="none" stroke="black" cx="450" cy="-90" rx="27" ry="18"/>
<text text-anchor="middle" x="450" y="-86.3" font-family="Times,serif" font-size="14.00">Tag</text>
</g>
<!-- BookTag&#45;&gt;Tag -->
<g id="edge5" class="edge"><title>BookTag&#45;&gt;Tag</title>
<path fill="none" stroke="#880003" d="M434.832,-156.729C437.77,-143.997 441.32,-128.613 444.247,-115.929"/>
<ellipse fill="none" stroke="#880003" cx="433.849" cy="-160.986" rx="4.00001" ry="4.00001"/>
<ellipse fill="#880003" stroke="#880003" cx="445.168" cy="-111.937" rx="4.00001" ry="4.00001"/>
</g>
<!-- UserType -->
<g id="node8" class="node"><title>UserType</title>
<ellipse fill="none" stroke="black" cx="277" cy="-183" rx="45.4919" ry="18"/>
<text text-anchor="middle" x="277" y="-179.3" font-family="Times,serif" font-size="14.00">UserType</text>
</g>
<!-- UserType&#45;&gt;User -->
<g id="edge6" class="edge"><title>UserType&#45;&gt;User</title>
<path fill="none" stroke="#08599f" d="M277,-156.729C277,-144.725 277,-130.362 277,-118.129"/>
<ellipse fill="none" stroke="#08599f" cx="277" cy="-160.884" rx="4" ry="4"/>
<polygon fill="#08599f" stroke="#08599f" points="277,-118.04 281.5,-108.04 277,-113.04 277,-108.04 277,-108.04 277,-108.04 277,-113.04 272.5,-108.04 277,-118.04 277,-118.04"/>
</g>
</g>
</svg>
