<?xml version="1.0" encoding="UTF-8" standalone="no"?>
<!DOCTYPE svg PUBLIC "-//W3C//DTD SVG 1.1//EN"
 "http://www.w3.org/Graphics/SVG/1.1/DTD/svg11.dtd">
<!-- Generated by graphviz version 2.38.0 (20140413.2041)
 -->
<!-- Title: models_diagram Pages: 1 -->
<svg width="1049pt" height="461pt"
 viewBox="0.00 0.00 1049.34 461.00" xmlns="http://www.w3.org/2000/svg" xmlns:xlink="http://www.w3.org/1999/xlink">
<g id="graph0" class="graph" transform="scale(1 1) rotate(0) translate(4 457)">
<title>models_diagram</title>
<polygon fill="none" stroke="none" points="-4,4 -4,-457 1045.34,-457 1045.34,4 -4,4"/>
<!-- _diagram_info -->
<g id="node1" class="node"><title>_diagram_info</title>
<text text-anchor="start" x="8" y="-424.1" font-family="Times,serif" font-size="13.00">Models diagram</text>
<text text-anchor="start" x="8" y="-410.1" font-family="Times,serif" font-size="13.00">Date: Oct 20 2016 &#45; 00:10</text>
<text text-anchor="start" x="8" y="-396.1" font-family="Times,serif" font-size="13.00">Migration version: 20161015180852</text>
<text text-anchor="start" x="8" y="-382.1" font-family="Times,serif" font-size="13.00">Generated by RailRoady 1.4.1</text>
<text text-anchor="start" x="8" y="-368.1" font-family="Times,serif" font-size="13.00">http://railroady.prestonlee.com</text>
</g>
<!-- Book -->
<g id="node2" class="node"><title>Book</title>
<path fill="none" stroke="black" d="M506,-143.5C506,-143.5 726,-143.5 726,-143.5 732,-143.5 738,-149.5 738,-155.5 738,-155.5 738,-297.5 738,-297.5 738,-303.5 732,-309.5 726,-309.5 726,-309.5 506,-309.5 506,-309.5 500,-309.5 494,-303.5 494,-297.5 494,-297.5 494,-155.5 494,-155.5 494,-149.5 500,-143.5 506,-143.5"/>
<text text-anchor="middle" x="616" y="-294.3" font-family="Times,serif" font-size="14.00">Book</text>
<polyline fill="none" stroke="black" points="494,-286.5 738,-286.5 "/>
<text text-anchor="start" x="502" y="-271.3" font-family="Times,serif" font-size="14.00">id :integer</text>
<text text-anchor="start" x="502" y="-256.3" font-family="Times,serif" font-size="14.00">title :character varying</text>
<text text-anchor="start" x="502" y="-241.3" font-family="Times,serif" font-size="14.00">description :character varying</text>
<text text-anchor="start" x="502" y="-226.3" font-family="Times,serif" font-size="14.00">isbn :character varying</text>
<text text-anchor="start" x="502" y="-211.3" font-family="Times,serif" font-size="14.00">cover :character varying</text>
<text text-anchor="start" x="502" y="-196.3" font-family="Times,serif" font-size="14.00">copies :integer</text>
<text text-anchor="start" x="502" y="-181.3" font-family="Times,serif" font-size="14.00">book_type_id :integer</text>
<text text-anchor="start" x="502" y="-166.3" font-family="Times,serif" font-size="14.00">created_at :timestamp without time zone</text>
<text text-anchor="start" x="502" y="-151.3" font-family="Times,serif" font-size="14.00">updated_at :timestamp without time zone</text>
</g>
<!-- BookType -->
<g id="node3" class="node"><title>BookType</title>
<path fill="none" stroke="black" d="M506,-8C506,-8 726,-8 726,-8 732,-8 738,-14 738,-20 738,-20 738,-87 738,-87 738,-93 732,-99 726,-99 726,-99 506,-99 506,-99 500,-99 494,-93 494,-87 494,-87 494,-20 494,-20 494,-14 500,-8 506,-8"/>
<text text-anchor="middle" x="616" y="-83.8" font-family="Times,serif" font-size="14.00">BookType</text>
<polyline fill="none" stroke="black" points="494,-76 738,-76 "/>
<text text-anchor="start" x="502" y="-60.8" font-family="Times,serif" font-size="14.00">id :integer</text>
<text text-anchor="start" x="502" y="-45.8" font-family="Times,serif" font-size="14.00">description :character varying</text>
<text text-anchor="start" x="502" y="-30.8" font-family="Times,serif" font-size="14.00">created_at :timestamp without time zone</text>
<text text-anchor="start" x="502" y="-15.8" font-family="Times,serif" font-size="14.00">updated_at :timestamp without time zone</text>
</g>
<!-- Book&#45;&gt;BookType -->
<g id="edge1" class="edge"><title>Book&#45;&gt;BookType</title>
<path fill="none" stroke="#29a02d" d="M616,-135.044C616,-125.487 616,-116.013 616,-107.101"/>
<ellipse fill="none" stroke="#29a02d" cx="616" cy="-139.256" rx="4" ry="4"/>
<ellipse fill="#29a02d" stroke="#29a02d" cx="616" cy="-103.089" rx="4" ry="4"/>
</g>
<!-- LoanHistory -->
<g id="node4" class="node"><title>LoanHistory</title>
<path fill="none" stroke="black" d="M244,-0.5C244,-0.5 464,-0.5 464,-0.5 470,-0.5 476,-6.5 476,-12.5 476,-12.5 476,-94.5 476,-94.5 476,-100.5 470,-106.5 464,-106.5 464,-106.5 244,-106.5 244,-106.5 238,-106.5 232,-100.5 232,-94.5 232,-94.5 232,-12.5 232,-12.5 232,-6.5 238,-0.5 244,-0.5"/>
<text text-anchor="middle" x="354" y="-91.3" font-family="Times,serif" font-size="14.00">LoanHistory</text>
<polyline fill="none" stroke="black" points="232,-83.5 476,-83.5 "/>
<text text-anchor="start" x="240" y="-68.3" font-family="Times,serif" font-size="14.00">id :integer</text>
<text text-anchor="start" x="240" y="-53.3" font-family="Times,serif" font-size="14.00">user_id :integer</text>
<text text-anchor="start" x="240" y="-38.3" font-family="Times,serif" font-size="14.00">book_id :integer</text>
<text text-anchor="start" x="240" y="-23.3" font-family="Times,serif" font-size="14.00">created_at :timestamp without time zone</text>
<text text-anchor="start" x="240" y="-8.3" font-family="Times,serif" font-size="14.00">updated_at :timestamp without time zone</text>
</g>
<!-- Book&#45;&gt;LoanHistory -->
<g id="edge2" class="edge"><title>Book&#45;&gt;LoanHistory</title>
<path fill="none" stroke="#6c36be" d="M487.116,-141.381C471.891,-131.444 456.627,-121.482 442.149,-112.032"/>
<ellipse fill="none" stroke="#6c36be" cx="490.472" cy="-143.571" rx="4.00002" ry="4.00002"/>
<polygon fill="#6c36be" stroke="#6c36be" points="442.095,-111.997 436.181,-102.763 437.908,-109.264 433.721,-106.532 433.721,-106.532 433.721,-106.532 437.908,-109.264 431.261,-110.3 442.095,-111.997 442.095,-111.997"/>
</g>
<!-- User -->
<g id="node5" class="node"><title>User</title>
<path fill="none" stroke="black" d="M244,-151C244,-151 464,-151 464,-151 470,-151 476,-157 476,-163 476,-163 476,-290 476,-290 476,-296 470,-302 464,-302 464,-302 244,-302 244,-302 238,-302 232,-296 232,-290 232,-290 232,-163 232,-163 232,-157 238,-151 244,-151"/>
<text text-anchor="middle" x="354" y="-286.8" font-family="Times,serif" font-size="14.00">User</text>
<polyline fill="none" stroke="black" points="232,-279 476,-279 "/>
<text text-anchor="start" x="240" y="-263.8" font-family="Times,serif" font-size="14.00">id :integer</text>
<text text-anchor="start" x="240" y="-248.8" font-family="Times,serif" font-size="14.00">name :character varying</text>
<text text-anchor="start" x="240" y="-233.8" font-family="Times,serif" font-size="14.00">last_name :character varying</text>
<text text-anchor="start" x="240" y="-218.8" font-family="Times,serif" font-size="14.00">birthdate :date</text>
<text text-anchor="start" x="240" y="-203.8" font-family="Times,serif" font-size="14.00">code :character varying</text>
<text text-anchor="start" x="240" y="-188.8" font-family="Times,serif" font-size="14.00">user_type_id :integer</text>
<text text-anchor="start" x="240" y="-173.8" font-family="Times,serif" font-size="14.00">created_at :timestamp without time zone</text>
<text text-anchor="start" x="240" y="-158.8" font-family="Times,serif" font-size="14.00">updated_at :timestamp without time zone</text>
</g>
<!-- User&#45;&gt;LoanHistory -->
<g id="edge3" class="edge"><title>User&#45;&gt;LoanHistory</title>
<path fill="none" stroke="#b7e86c" d="M354,-142.907C354,-134.134 354,-125.32 354,-116.835"/>
<ellipse fill="none" stroke="#b7e86c" cx="354" cy="-146.994" rx="4" ry="4"/>
<polygon fill="#b7e86c" stroke="#b7e86c" points="354,-116.673 358.5,-106.673 354,-111.673 354,-106.673 354,-106.673 354,-106.673 354,-111.673 349.5,-106.673 354,-116.673 354,-116.673"/>
</g>
<!-- ApplicationRecord -->
<g id="node6" class="node"><title>ApplicationRecord</title>
<ellipse fill="none" stroke="black" cx="964" cy="-399.5" rx="77.1866" ry="18"/>
<text text-anchor="middle" x="964" y="-395.8" font-family="Times,serif" font-size="14.00">ApplicationRecord</text>
</g>
<!-- BookTag -->
<g id="node7" class="node"><title>BookTag</title>
<path fill="none" stroke="black" d="M637,-346.5C637,-346.5 857,-346.5 857,-346.5 863,-346.5 869,-352.5 869,-358.5 869,-358.5 869,-440.5 869,-440.5 869,-446.5 863,-452.5 857,-452.5 857,-452.5 637,-452.5 637,-452.5 631,-452.5 625,-446.5 625,-440.5 625,-440.5 625,-358.5 625,-358.5 625,-352.5 631,-346.5 637,-346.5"/>
<text text-anchor="middle" x="747" y="-437.3" font-family="Times,serif" font-size="14.00">BookTag</text>
<polyline fill="none" stroke="black" points="625,-429.5 869,-429.5 "/>
<text text-anchor="start" x="633" y="-414.3" font-family="Times,serif" font-size="14.00">id :integer</text>
<text text-anchor="start" x="633" y="-399.3" font-family="Times,serif" font-size="14.00">book_id :integer</text>
<text text-anchor="start" x="633" y="-384.3" font-family="Times,serif" font-size="14.00">tag_id :integer</text>
<text text-anchor="start" x="633" y="-369.3" font-family="Times,serif" font-size="14.00">created_at :timestamp without time zone</text>
<text text-anchor="start" x="633" y="-354.3" font-family="Times,serif" font-size="14.00">updated_at :timestamp without time zone</text>
</g>
<!-- BookTag&#45;&gt;Book -->
<g id="edge4" class="edge"><title>BookTag&#45;&gt;Book</title>
<path fill="none" stroke="#5b2e9c" d="M701.917,-339.651C696.123,-332.088 690.092,-324.216 684.032,-316.306"/>
<ellipse fill="none" stroke="#5b2e9c" cx="704.551" cy="-343.09" rx="4.00002" ry="4.00002"/>
<ellipse fill="#5b2e9c" stroke="#5b2e9c" cx="681.373" cy="-312.834" rx="4.00002" ry="4.00002"/>
</g>
<!-- Tag -->
<g id="node9" class="node"><title>Tag</title>
<path fill="none" stroke="black" d="M768,-181C768,-181 988,-181 988,-181 994,-181 1000,-187 1000,-193 1000,-193 1000,-260 1000,-260 1000,-266 994,-272 988,-272 988,-272 768,-272 768,-272 762,-272 756,-266 756,-260 756,-260 756,-193 756,-193 756,-187 762,-181 768,-181"/>
<text text-anchor="middle" x="878" y="-256.8" font-family="Times,serif" font-size="14.00">Tag</text>
<polyline fill="none" stroke="black" points="756,-249 1000,-249 "/>
<text text-anchor="start" x="764" y="-233.8" font-family="Times,serif" font-size="14.00">id :integer</text>
<text text-anchor="start" x="764" y="-218.8" font-family="Times,serif" font-size="14.00">description :character varying</text>
<text text-anchor="start" x="764" y="-203.8" font-family="Times,serif" font-size="14.00">created_at :timestamp without time zone</text>
<text text-anchor="start" x="764" y="-188.8" font-family="Times,serif" font-size="14.00">updated_at :timestamp without time zone</text>
</g>
<!-- BookTag&#45;&gt;Tag -->
<g id="edge5" class="edge"><title>BookTag&#45;&gt;Tag</title>
<path fill="none" stroke="#8913bd" d="M791.973,-339.794C807.21,-319.906 824.094,-297.865 838.841,-278.616"/>
<ellipse fill="none" stroke="#8913bd" cx="789.449" cy="-343.09" rx="4.00002" ry="4.00002"/>
<ellipse fill="#8913bd" stroke="#8913bd" cx="841.322" cy="-275.377" rx="4.00002" ry="4.00002"/>
</g>
<!-- UserType -->
<g id="node8" class="node"><title>UserType</title>
<path fill="none" stroke="black" d="M244,-354C244,-354 464,-354 464,-354 470,-354 476,-360 476,-366 476,-366 476,-433 476,-433 476,-439 470,-445 464,-445 464,-445 244,-445 244,-445 238,-445 232,-439 232,-433 232,-433 232,-366 232,-366 232,-360 238,-354 244,-354"/>
<text text-anchor="middle" x="354" y="-429.8" font-family="Times,serif" font-size="14.00">UserType</text>
<polyline fill="none" stroke="black" points="232,-422 476,-422 "/>
<text text-anchor="start" x="240" y="-406.8" font-family="Times,serif" font-size="14.00">id :integer</text>
<text text-anchor="start" x="240" y="-391.8" font-family="Times,serif" font-size="14.00">description :character varying</text>
<text text-anchor="start" x="240" y="-376.8" font-family="Times,serif" font-size="14.00">created_at :timestamp without time zone</text>
<text text-anchor="start" x="240" y="-361.8" font-family="Times,serif" font-size="14.00">updated_at :timestamp without time zone</text>
</g>
<!-- UserType&#45;&gt;User -->
<g id="edge6" class="edge"><title>UserType&#45;&gt;User</title>
<path fill="none" stroke="#019b23" d="M354,-345.263C354,-334.823 354,-323.632 354,-312.453"/>
<ellipse fill="none" stroke="#019b23" cx="354" cy="-349.572" rx="4" ry="4"/>
<polygon fill="#019b23" stroke="#019b23" points="354,-312.212 358.5,-302.212 354,-307.212 354,-302.212 354,-302.212 354,-302.212 354,-307.212 349.5,-302.212 354,-312.212 354,-312.212"/>
</g>
</g>
</svg>
